<?xml version="1.0" encoding="UTF-8"?>
<svg width="627px" height="613px" viewBox="0 0 627 613" version="1.1" xmlns="http://www.w3.org/2000/svg" xmlns:xlink="http://www.w3.org/1999/xlink">
    <!-- Generator: Sketch 45 (43475) - http://www.bohemiancoding.com/sketch -->
    <title>48</title>
    <desc>Created with Sketch.</desc>
    <defs>
        <path d="M0.671335796,301.386392 C0.671335796,467.524933 135.353102,602.207411 301.492355,602.207411 C467.630185,602.207411 602.313374,467.524933 602.313374,301.386392 C602.313374,135.247139 467.630185,0.565372837 301.492355,0.565372837 C135.353102,0.565372837 0.671335796,135.247139 0.671335796,301.386392 Z" id="path-1"></path>
    </defs>
    <g id="Welcome" stroke="none" stroke-width="1" fill="none" fill-rule="evenodd">
        <g id="48">
            <g id="Page-1" transform="translate(14.000000, 10.355527)">
                <path d="M301.491928,602.904277 C467.63047,602.904277 602.312947,468.2218 602.312947,302.083258 C602.312947,135.944005 467.63047,1.26223931 301.491928,1.26223931 C135.353386,1.26223931 0.6709091,135.944005 0.6709091,302.083258 C0.6709091,468.2218 135.353386,602.904277 301.491928,602.904277" id="Fill-1" fill="#DBDACE"></path>
                <g id="Group-6" transform="translate(0.000000, 0.696938)">
                    <mask id="mask-2" fill="white">
                        <use xlink:href="#path-1"></use>
                    </mask>
                    <g id="Clip-4"></g>
                    <polygon id="Fill-3" fill="#DBDACE" mask="url(#mask-2)" points="-15.6448265 614.444354 623.727136 614.444354 623.727136 -10.6517665 -15.6448265 -10.6517665"></polygon>
                    <polygon id="Fill-5" fill="#DBDACE" mask="url(#mask-2)" points="-4.42768715 607.305722 607.410974 607.305722 607.410974 -4.53365011 -4.42768715 -4.53365011"></polygon>
                </g>
                <g id="Group-17" transform="translate(78.227688, 46.211229)">
                    <path d="M67.6561406,152.243242 C67.6561406,152.243242 79.6562679,462.906015 129.994363,522.682636 L124.283031,540.271065 C124.283031,540.271065 151.465019,556.487665 237.334841,558.167427 C310.96203,559.60895 370.908618,517.605659 370.908618,517.605659 L366.525734,394.484523 L375.963549,161.681057 L209.22621,98.7596827 L83.3841729,101.905147 L67.6561406,152.243242 Z" id="Fill-7" fill="#FEFEFE"></path>
                    <path d="M96.4112164,58.7954326 C86.3226893,22.8931907 293.878525,-60.2763538 328.571082,75.9600097 C328.571082,75.9600097 379.539977,83.9947044 414.711857,121.739564 C449.873069,159.48229 492.285277,228.893006 484.367924,272.752427 C473.307951,334.103558 428.426593,372.83053 428.426593,372.83053 C428.426593,372.83053 402.042527,463.70408 365.977429,464.464311 C365.977429,464.464311 334.999265,372.650607 365.912002,307.316264 C365.912002,307.316264 336.178369,247.621426 359.654499,219.967938 C383.134184,192.311606 174.920524,153.959415 161.86859,120.344978 C161.86859,120.344978 142.30669,159.148756 113.191056,126.167962 L76.5534734,289.319629 C76.5534734,289.319629 -1.45873304,295.417121 12.4266816,217.280462 C12.4266816,217.280462 -17.7535605,140.21481 18.1742832,108.811372 C18.1742832,108.811372 24.9850702,55.0781951 96.4112164,58.7954326" id="Fill-9" fill="#404040"></path>
                    <path d="M96.6887114,439.279333 C96.6887114,439.279333 60.2594993,396.641687 120.302806,384.790904 C120.302806,384.790904 139.723185,364.50362 151.603837,365.03699 C163.474533,365.570361 242.495166,372.793621 251.531886,377.975139 C251.531886,377.975139 281.759776,440.976874 271.50057,462.999391 C271.50057,462.999391 135.994569,476.747551 117.621018,444.183498 L96.6887114,439.279333 Z" id="Fill-11" fill="#404040"></path>
                    <path d="M106.200487,273.827488 C106.200487,273.827488 152.455097,245.056767 173.046047,282.288168" id="Stroke-13" stroke="#404040" stroke-width="28.685" stroke-linecap="round"></path>
                    <path d="M225.388691,282.519011 C225.388691,282.519011 271.685259,253.458847 293.902633,298.887799" id="Stroke-15" stroke="#404040" stroke-width="28.685" stroke-linecap="round"></path>
                </g>
            </g>
        </g>
    </g>
</svg>