<?xml version="1.0" encoding="UTF-8"?>
<svg width="627px" height="613px" viewBox="0 0 627 613" version="1.1" xmlns="http://www.w3.org/2000/svg" xmlns:xlink="http://www.w3.org/1999/xlink">
    <!-- Generator: Sketch 44.1 (41455) - http://www.bohemiancoding.com/sketch -->
    <title>48</title>
    <desc>Created with Sketch.</desc>
    <defs>
        <polygon id="path-1" points="0.5391 456 306.3201 456 306.3201 0.3212 0.5391 0.3212"></polygon>
        <polygon id="path-3" points="3.17051479e-14 460.0286 3.17051479e-14 0.013 480.791042 0.013 480.791042 460.0286"></polygon>
    </defs>
    <g id="Welcome" stroke="none" stroke-width="1" fill="none" fill-rule="evenodd">
        <g id="48">
            <g id="Page-1" transform="translate(73.000000, 29.000000)">
                <g id="Group-3" transform="translate(66.000000, 97.987000)">
                    <mask id="mask-2" fill="white">
                        <use xlink:href="#path-1"></use>
                    </mask>
                    <g id="Clip-2"></g>
                    <path d="M0.5391,53.3662 C0.5391,53.3662 12.4411,361.4822 62.3661,420.7692 L56.7021,438.2142 C56.7021,438.2142 83.6611,454.2972 168.8271,455.9642 C241.8511,457.3932 301.3071,415.7342 301.3071,415.7342 L296.9591,293.6222 L306.3201,62.7262 L140.9491,0.3212 L16.1391,3.4402 L0.5391,53.3662 Z" id="Fill-1" fill="#FEFEFE" mask="url(#mask-2)"></path>
                </g>
                <g id="Group-6" transform="translate(0.000000, 0.987000)">
                    <mask id="mask-4" fill="white">
                        <use xlink:href="#path-3"></use>
                    </mask>
                    <g id="Clip-5"></g>
                    <path d="M95.0586,57.6846 C85.0536,22.0766 290.9076,-60.4114 325.3146,74.7076 C325.3146,74.7076 375.8666,82.6766 410.7496,120.1126 C445.6236,157.5456 487.6876,226.3876 479.8346,269.8876 C468.8656,330.7366 424.3516,369.1456 424.3516,369.1456 C424.3516,369.1456 398.1846,459.2746 362.4146,460.0286 C362.4146,460.0286 331.6906,368.9666 362.3516,304.1676 C362.3516,304.1676 332.8616,244.9626 356.1436,217.5366 C379.4316,190.1066 172.9246,152.0686 159.9796,118.7296 C159.9796,118.7296 140.5776,157.2146 111.7006,124.5046 L75.3636,286.3196 C75.3636,286.3196 -2.0084,292.3676 11.7626,214.8706 C11.7626,214.8706 -18.1704,138.4366 17.4626,107.2896 C17.4626,107.2896 24.2186,53.9976 95.0586,57.6846" id="Fill-4" fill="#626262" mask="url(#mask-4)"></path>
                </g>
                <path d="M95.334,436.0368 C95.334,436.0368 59.203,393.7488 118.754,381.9948 C118.754,381.9948 138.015,361.8748 149.798,362.4028 C161.572,362.9328 239.945,370.0958 248.908,375.2348 C248.908,375.2348 278.888,437.7208 268.713,459.5618 C268.713,459.5618 134.317,473.1978 116.094,440.8998 L95.334,436.0368 Z" id="Fill-7" fill="#626262"></path>
                <path d="M104.7676,271.9411 C104.7676,271.9411 150.6436,243.4061 171.0656,280.3331" id="Stroke-9" stroke="#626262" stroke-width="19.843" stroke-linecap="round"></path>
                <path d="M222.979,280.5612 C222.979,280.5612 268.896,251.7392 290.931,296.7952" id="Stroke-11" stroke="#626262" stroke-width="19.843" stroke-linecap="round"></path>
            </g>
        </g>
    </g>
</svg>